# xmcd
#
# Track frame offsets:
#	150
#	14897
#	32326
#	55576
#	71805
#	83861
#	97950
#	110157
#	122727
#	144130
#	156183
#	170964
#	180971
#	191586
#	206584
#	217467
#
# Disc length: 3008 seconds
#
# Revision: 0
# Processed by: cddbd v1.5.2PL0 Copyright (c) Steve Scherf et al.
# Submitted via: EasyCDDAExtractor 10.2.0.1
#
DISCID=e90bbe10
DTITLE=Beatlemania - Beatles Meet Lain
DYEAR=1900
DGENRE=
TTITLE0=And I Love Her (Bolero)
TTITLE1=Do You Want to Know  Secret (Bolero)
TTITLE2=Get Back
TTITLE3=You Can't Do Tht
TTITLE4=Back in the USSR
TTITLE5=Ob-La-Di, Ob-La-Da
TTITLE6=I'll Follow the Sun
TTITLE7=things We Said Today
TTITLE8=Help
TTITLE9=I Saw Her Standing There
TTITLE10=A Hard Day's Night
TTITLE11=I Want to Hold Your Hand
TTITLE12=She Loves You
TTITLE13=Hey Jude
TTITLE14=Yesterday
TTITLE15=Here, There and Everywhere
EXTD=
EXTT0=
EXTT1=
EXTT2=
EXTT3=
EXTT4=
EXTT5=
EXTT6=
EXTT7=
EXTT8=
EXTT9=
EXTT10=
EXTT11=
EXTT12=
EXTT13=
EXTT14=
EXTT15=
PLAYORDER=
